<?xml version="1.0" encoding="utf-8"?>
<svg version="1.1" id="Layer_1" xmlns="http://www.w3.org/2000/svg" xmlns:xlink="http://www.w3.org/1999/xlink" x="0px" y="0px"
	 viewBox="0 0 951 256" style="enable-background:new 0 0 951 256;" xml:space="preserve">
<style type="text/css">
  .astst0{fill:#FFFFFF;}
  .astst1{filter:url(#Adobe_OpacityMaskFilter);}
  .astst2{mask:url(#mask-2);}
  .astst3{fill:#FBF0C3;}
  .astst4{fill:#F9E493;}
  .astst5{fill:#74B9E8;}
  .astst6{fill:#F5D34B;}
  .astst7{fill:#99CCEE;}
  .astst8{fill:#D0E8F7;}
  .astst9{enable-background:new;}
  .astst10{fill:#34495E;}
</style>
<g>
  <g>
    <ellipse id="path-1_1_" class="astst0" cx="128.4" cy="127.8" rx="126.4" ry="126.8"/>
  </g>
  <defs>
    <filter id="Adobe_OpacityMaskFilter" filterUnits="userSpaceOnUse" x="0" y="0" width="256" height="256">
      <feColorMatrix  type="matrix" values="1 0 0 0 0  0 1 0 0 0  0 0 1 0 0  0 0 0 1 0"/>
    </filter>
  </defs>
  <mask maskUnits="userSpaceOnUse" x="0" y="0" width="256" height="256" id="mask-2">
    <g class="astst1">
      <ellipse id="path-1" class="astst0" cx="128.4" cy="127.8" rx="126.4" ry="126.8"/>
    </g>
  </mask>
  <g class="astst2">
    <g transform="translate(-2.000000, -1.000000)">
      <path class="astst3" d="M185.3,13.4C168.6,5.4,150,1,130.4,1C96.2,1,65.1,14.5,42.1,36.5C17.7,59.9,228.5,34,185.3,13.4z"/>
      <path class="astst4" d="M230.5,49.3c0.1,0.2-10.4,14.4-42.2,18.4c-64.2,8.1-174.4,9-174.2,8.6c6.8-15,16.4-28.5,28.2-39.8
        c13.9,4.3,28.9,5.4,43.2,2.8c23.5-4.3,44.5-18,67.8-23.5c10.3-2.5,21.6-3.2,32.2-2.4C203,21.8,218.4,34.2,230.5,49.3z"/>
      <g>
        <path class="astst0" d="M256.4,109.4c0-0.3-0.1-0.5-0.1-0.8c-9.2-7.4-19.9-13.5-30.7-17.8c-22.2-8.8-47-10.7-70.2-5.3
          c-15.8,3.7-30.7,10.5-45.6,16.9c-14.9,6.4-30.3,12.4-46.4,14.1c-20.1,2.2-41-3-58.3-13.5c-0.2-0.1-0.3-0.2-0.5-0.3
          c-1.6,8-2.5,16.4-2.6,24.9c0,0.2,91.3,12,163.8,12.8c51.8,0.6,92-9.6,92-9.6s0-1.4,0-2.1C257.9,122.2,257.4,115.7,256.4,109.4z
          "/>
      </g>
      <path class="astst5" d="M190.7,128.9c-0.1,0-0.2,0-0.2,0.1c-18.4,5.3-38,4.3-55.6-3.4c-2.9-1.3-5.7-2.5-8.6-3.8
        c-16.6-7.2-33.8-13.9-51.7-15.7c-18.2-1.8-36.8,1.5-53.3,9.5c-6.3,3.1-12.8,7-18.4,11.3c-0.5,0.4-0.9,1.1-0.9,1.8l0,0
        c0,14,2.2,27.5,6.4,40.1c0.2,0.5,56.4,7.5,95.3,3c0.8-0.1,1.6,0.3,2.1,0.9c4.7,7.1,47.6,15.9,85,13.1c33.5-2.5,58.5-17,62.4-22
        c0.2-0.2,0.3-0.5,0.4-0.8c2.6-9.6,4.2-19.7,4.5-30.1c0-1-0.6-1.9-1.5-2.2C235.5,123.6,212,122.8,190.7,128.9z"/>
      <path class="astst6" d="M63.4,116.6c16.1-1.8,31.5-7.7,46.4-14.1c14.9-6.4,29.8-13.2,45.6-16.9c23.2-5.4,48-3.5,70.2,5.3
        c10.8,4.3,21.5,10.4,30.7,17.8c0,0.3,0.1,0.5,0.1,0.8c0.2,0,0.3-0.1,0.3-0.1c-3.5-22.5-12.9-43-26.4-60
        c-18.4,11.5-40.2,18.4-61.9,19c-29.2,0.7-57.8-9-86.9-9.3c-23.3-0.3-47.2,6.2-67.6,17.4C10,84.8,7.1,93.7,5.1,103
        C22.4,113.6,43.3,118.8,63.4,116.6z"/>
      <path class="astst7" d="M241.6,192.8C219.5,231.3,59.2,241,35.8,215.1C23.9,201.9,14.7,186.2,9,168.9c19.7-11.3,42.7-16.1,64.9-13
        c28.7,3.9,54.3,20,82.6,26.2c22.8,5.1,47,3.5,69-4.5c9.9-3.6,19.8-8.5,28.5-14.5C251.1,173.6,246.9,183.6,241.6,192.8z"/>
      <path class="astst8" d="M241,192.3c-22,38.7-63.6,64.7-111.1,64.7c-37.6,0-71.4-16.3-94.8-42.2c3.9,1.5,8.2,2.8,12.2,3.9
        c22.3,6.2,46.2,6,68.4-0.6c14.2-4.2,27.5-10.9,41.4-15.9C183.7,192.6,212.9,189.3,241,192.3z"/>
    </g>
  </g>
</g>
<g class="astst9">
  <path class="astst10" d="M374.3,104.5c0,1,0,1.8-0.1,2.5c-0.1,0.7-0.2,1.2-0.4,1.6c-0.2,0.4-0.4,0.7-0.6,0.9
    c-0.2,0.2-0.5,0.3-0.8,0.3h-16.1v51.8c0,0.3-0.1,0.6-0.3,0.9c-0.2,0.3-0.6,0.5-1.1,0.6c-0.5,0.2-1.2,0.3-2,0.4
    c-0.8,0.1-1.9,0.1-3.2,0.1c-1.3,0-2.3,0-3.2-0.1c-0.8-0.1-1.5-0.2-2-0.4c-0.5-0.2-0.9-0.4-1.1-0.6c-0.2-0.3-0.3-0.6-0.3-0.9v-51.8
    H327c-0.3,0-0.6-0.1-0.8-0.3c-0.2-0.2-0.4-0.5-0.6-0.9c-0.2-0.4-0.3-1-0.4-1.6c-0.1-0.7-0.1-1.5-0.1-2.5c0-1,0-1.8,0.1-2.5
    c0.1-0.7,0.2-1.2,0.4-1.7c0.2-0.4,0.4-0.7,0.6-0.9c0.2-0.2,0.5-0.3,0.8-0.3h45.3c0.3,0,0.6,0.1,0.8,0.3c0.2,0.2,0.5,0.5,0.6,0.9
    c0.2,0.4,0.3,1,0.4,1.7C374.2,102.6,374.3,103.5,374.3,104.5z"/>
  <path class="astst10" d="M404.4,121.5c0,1.2,0,2.2-0.1,2.9c-0.1,0.8-0.2,1.4-0.3,1.8c-0.1,0.4-0.3,0.7-0.5,0.9
    c-0.2,0.2-0.5,0.2-0.8,0.2c-0.3,0-0.6-0.1-0.9-0.2c-0.3-0.1-0.7-0.2-1.1-0.4c-0.4-0.1-0.9-0.3-1.4-0.4c-0.5-0.1-1-0.2-1.6-0.2
    c-0.7,0-1.4,0.1-2.1,0.4c-0.7,0.3-1.4,0.7-2.2,1.3s-1.5,1.4-2.3,2.4c-0.8,1-1.7,2.2-2.6,3.7v27.6c0,0.3-0.1,0.6-0.3,0.9
    c-0.2,0.2-0.5,0.5-1,0.6c-0.5,0.2-1.1,0.3-1.9,0.4c-0.8,0.1-1.8,0.1-3,0.1c-1.2,0-2.2,0-3-0.1c-0.8-0.1-1.4-0.2-1.9-0.4
    c-0.5-0.2-0.8-0.4-1-0.6c-0.2-0.2-0.3-0.5-0.3-0.9v-44.3c0-0.3,0.1-0.6,0.2-0.9c0.2-0.2,0.5-0.5,0.9-0.6c0.4-0.2,1-0.3,1.7-0.4
    c0.7-0.1,1.5-0.1,2.6-0.1c1.1,0,1.9,0,2.6,0.1c0.7,0.1,1.2,0.2,1.6,0.4c0.4,0.2,0.7,0.4,0.8,0.6c0.2,0.2,0.2,0.5,0.2,0.9v5.5
    c1.2-1.7,2.3-3,3.3-4.1c1-1.1,2-1.9,2.9-2.6c0.9-0.6,1.9-1.1,2.8-1.3c0.9-0.2,1.9-0.4,2.8-0.4c0.4,0,0.9,0,1.4,0.1
    c0.5,0,1,0.1,1.5,0.2c0.5,0.1,1,0.2,1.4,0.4c0.4,0.1,0.7,0.3,0.9,0.5c0.2,0.2,0.3,0.3,0.4,0.5c0.1,0.2,0.2,0.5,0.2,0.8
    c0.1,0.3,0.1,0.9,0.1,1.6C404.4,119.4,404.4,120.3,404.4,121.5z"/>
  <path class="astst10" d="M451.9,138.2c0,1.5-0.3,2.6-1,3.4c-0.7,0.7-1.6,1.1-2.8,1.1h-27c0,1.9,0.2,3.6,0.7,5.1
    c0.4,1.5,1.2,2.8,2.1,3.9c1,1.1,2.2,1.9,3.8,2.5c1.5,0.6,3.4,0.8,5.5,0.8c2.2,0,4.1-0.2,5.8-0.5c1.7-0.3,3.1-0.7,4.3-1
    c1.2-0.4,2.2-0.7,3-1c0.8-0.3,1.4-0.5,1.9-0.5c0.3,0,0.5,0.1,0.7,0.2c0.2,0.1,0.4,0.3,0.5,0.6c0.1,0.3,0.2,0.7,0.3,1.3
    c0,0.5,0.1,1.2,0.1,2.1c0,0.7,0,1.3,0,1.9c0,0.5-0.1,1-0.1,1.3c-0.1,0.4-0.2,0.7-0.3,0.9c-0.1,0.2-0.3,0.5-0.5,0.7
    s-0.8,0.5-1.8,0.9c-1,0.4-2.2,0.8-3.7,1.2c-1.5,0.4-3.2,0.7-5.1,1c-1.9,0.3-4,0.4-6.2,0.4c-3.9,0-7.4-0.5-10.4-1.5
    c-3-1-5.4-2.5-7.4-4.5c-2-2-3.5-4.6-4.4-7.6c-1-3.1-1.5-6.7-1.5-10.8c0-3.9,0.5-7.5,1.5-10.7c1-3.2,2.5-5.8,4.5-8
    c2-2.2,4.3-3.9,7.1-5c2.8-1.2,6-1.7,9.5-1.7c3.7,0,6.9,0.5,9.5,1.6c2.6,1.1,4.8,2.6,6.5,4.5c1.7,1.9,2.9,4.2,3.7,6.9
    c0.8,2.6,1.2,5.5,1.2,8.6V138.2z M439.8,134.7c0.1-3.5-0.6-6.3-2.1-8.3c-1.5-2-3.8-3-7-3c-1.6,0-3,0.3-4.1,0.9
    c-1.2,0.6-2.2,1.4-2.9,2.4c-0.8,1-1.4,2.2-1.8,3.6c-0.4,1.4-0.7,2.8-0.7,4.4H439.8z"/>
  <path class="astst10" d="M504.5,161.7c0,0.3-0.1,0.6-0.3,0.9c-0.2,0.2-0.5,0.5-1,0.6c-0.5,0.2-1.1,0.3-1.9,0.4
    c-0.8,0.1-1.8,0.1-3,0.1c-1.2,0-2.2,0-3.1-0.1c-0.8-0.1-1.4-0.2-1.9-0.4c-0.5-0.2-0.8-0.4-1-0.6c-0.2-0.2-0.3-0.5-0.3-0.9v-25.3
    c0-2.2-0.2-3.8-0.5-5.1c-0.3-1.2-0.8-2.3-1.4-3.2c-0.6-0.9-1.4-1.6-2.3-2c-0.9-0.5-2-0.7-3.3-0.7c-1.6,0-3.2,0.6-4.8,1.7
    c-1.6,1.2-3.3,2.8-5.1,5.1v29.5c0,0.3-0.1,0.6-0.3,0.9c-0.2,0.2-0.5,0.5-1,0.6c-0.5,0.2-1.1,0.3-1.9,0.4c-0.8,0.1-1.8,0.1-3,0.1
    c-1.2,0-2.2,0-3-0.1c-0.8-0.1-1.4-0.2-1.9-0.4c-0.5-0.2-0.8-0.4-1-0.6c-0.2-0.2-0.3-0.5-0.3-0.9v-44.3c0-0.3,0.1-0.6,0.2-0.9
    c0.2-0.2,0.5-0.5,0.9-0.6c0.4-0.2,1-0.3,1.7-0.4c0.7-0.1,1.5-0.1,2.6-0.1c1.1,0,1.9,0,2.6,0.1c0.7,0.1,1.2,0.2,1.6,0.4
    c0.4,0.2,0.7,0.4,0.8,0.6c0.2,0.2,0.2,0.5,0.2,0.9v5.1c2.5-2.6,4.9-4.6,7.5-6c2.5-1.3,5.2-2,7.9-2c3,0,5.6,0.5,7.6,1.5
    c2.1,1,3.7,2.3,5,4c1.3,1.7,2.2,3.7,2.8,6c0.6,2.3,0.8,5,0.8,8.2V161.7z"/>
  <path class="astst10" d="M558.8,161.7c0,0.4-0.1,0.7-0.2,0.9c-0.2,0.2-0.4,0.5-0.8,0.6c-0.4,0.2-0.9,0.3-1.6,0.3s-1.5,0.1-2.5,0.1
    c-1.1,0-1.9,0-2.6-0.1s-1.2-0.2-1.6-0.3c-0.4-0.2-0.7-0.4-0.9-0.6c-0.2-0.2-0.3-0.6-0.3-0.9v-4.9c-2.3,2.5-4.7,4.4-7.2,5.7
    c-2.5,1.4-5.3,2-8.3,2c-3.4,0-6.2-0.7-8.6-2s-4.2-3.1-5.7-5.3c-1.5-2.2-2.5-4.8-3.2-7.8c-0.7-3-1-6.1-1-9.4
    c0-3.9,0.4-7.5,1.3-10.6c0.8-3.1,2.1-5.8,3.7-8c1.6-2.2,3.6-3.9,6.1-5.1c2.4-1.2,5.2-1.8,8.3-1.8c2.5,0,4.7,0.5,6.8,1.5
    c2,1,4,2.5,6,4.4v-24c0-0.3,0.1-0.6,0.3-0.9c0.2-0.3,0.5-0.5,1-0.7c0.5-0.2,1.1-0.3,1.9-0.4c0.8-0.1,1.8-0.1,3-0.1
    c1.2,0,2.2,0,3,0.1c0.8,0.1,1.4,0.2,1.9,0.4c0.5,0.2,0.8,0.4,1,0.7c0.2,0.3,0.3,0.6,0.3,0.9V161.7z M546.3,132.1
    c-1.8-2.3-3.5-4-5.1-5.2c-1.6-1.2-3.4-1.8-5.1-1.8c-1.6,0-3,0.4-4.2,1.2c-1.2,0.8-2.1,1.9-2.8,3.3c-0.7,1.4-1.2,2.9-1.6,4.5
    c-0.3,1.7-0.5,3.4-0.5,5.1c0,1.9,0.1,3.7,0.4,5.4c0.3,1.8,0.8,3.3,1.5,4.7s1.6,2.5,2.7,3.3c1.1,0.8,2.5,1.2,4.3,1.2
    c0.9,0,1.7-0.1,2.5-0.4c0.8-0.2,1.6-0.7,2.5-1.2c0.8-0.6,1.7-1.3,2.6-2.2c0.9-0.9,1.9-2,2.9-3.4V132.1z"/>
  <path class="astst10" d="M610.2,144.1c0,3.4-0.6,6.3-1.9,8.9c-1.3,2.6-3,4.7-5.1,6.4c-2.2,1.7-4.7,3-7.6,3.8c-2.9,0.9-6,1.3-9.2,1.3
    c-2.2,0-4.3-0.2-6.2-0.5s-3.6-0.8-5-1.3c-1.5-0.5-2.7-1.1-3.7-1.6c-1-0.6-1.7-1.1-2.1-1.5c-0.4-0.4-0.7-1.1-0.9-1.9
    c-0.2-0.8-0.3-2-0.3-3.5c0-1,0-1.9,0.1-2.6c0.1-0.7,0.2-1.3,0.3-1.7c0.1-0.4,0.3-0.7,0.6-0.9c0.2-0.2,0.5-0.3,0.9-0.3
    c0.5,0,1.1,0.3,2,0.8c0.8,0.5,1.9,1.2,3.3,1.8c1.3,0.7,2.9,1.3,4.7,1.8c1.8,0.5,4,0.8,6.4,0.8c1.6,0,3-0.2,4.3-0.6
    c1.3-0.4,2.3-0.9,3.2-1.6c0.9-0.7,1.5-1.6,2-2.6c0.5-1,0.7-2.2,0.7-3.4c0-1.5-0.4-2.7-1.2-3.8s-1.8-2-3.1-2.8
    c-1.3-0.8-2.7-1.6-4.3-2.3c-1.6-0.7-3.3-1.5-5-2.3c-1.7-0.8-3.4-1.7-5-2.7c-1.6-1-3.1-2.2-4.3-3.6c-1.3-1.4-2.3-3.1-3.1-5
    c-0.8-1.9-1.2-4.2-1.2-6.9c0-3.1,0.6-5.8,1.7-8.1s2.7-4.3,4.6-5.8c1.9-1.5,4.2-2.7,6.9-3.5c2.6-0.8,5.4-1.1,8.4-1.1
    c1.5,0,3,0.1,4.6,0.3c1.5,0.2,2.9,0.5,4.3,0.9s2.5,0.8,3.5,1.3c1,0.5,1.7,0.9,2,1.2c0.3,0.3,0.6,0.6,0.7,0.8
    c0.1,0.2,0.2,0.5,0.3,0.9c0.1,0.4,0.1,0.9,0.2,1.4c0,0.6,0,1.3,0,2.2c0,1,0,1.8-0.1,2.4c0,0.7-0.1,1.2-0.2,1.6
    c-0.1,0.4-0.3,0.7-0.5,0.9c-0.2,0.2-0.5,0.3-0.9,0.3s-0.9-0.2-1.7-0.7c-0.8-0.5-1.8-1-2.9-1.5s-2.5-1-4-1.5
    c-1.5-0.4-3.2-0.7-5-0.7c-1.4,0-2.7,0.2-3.7,0.5c-1.1,0.3-1.9,0.8-2.7,1.4c-0.7,0.6-1.2,1.3-1.6,2.2c-0.3,0.9-0.5,1.8-0.5,2.7
    c0,1.4,0.4,2.7,1.2,3.7c0.8,1,1.8,2,3.1,2.8c1.3,0.8,2.8,1.6,4.4,2.3c1.7,0.7,3.3,1.5,5.1,2.3c1.7,0.8,3.4,1.7,5.1,2.7
    c1.7,1,3.1,2.2,4.4,3.6c1.3,1.4,2.3,3.1,3.1,5C609.8,139.3,610.2,141.5,610.2,144.1z"/>
  <path class="astst10" d="M645.6,157.3c0,1.5-0.1,2.6-0.3,3.4c-0.2,0.8-0.4,1.3-0.7,1.6c-0.3,0.3-0.7,0.6-1.3,0.8
    c-0.6,0.2-1.3,0.5-2,0.6c-0.8,0.2-1.6,0.3-2.5,0.4c-0.9,0.1-1.8,0.1-2.8,0.1c-2.5,0-4.6-0.3-6.5-0.9s-3.3-1.6-4.5-2.9
    c-1.2-1.3-2.1-3-2.6-4.9c-0.6-2-0.8-4.3-0.8-7.1v-22.7h-5.3c-0.6,0-1.1-0.4-1.4-1.2c-0.3-0.8-0.5-2.1-0.5-3.9c0-1,0-1.8,0.1-2.4
    c0.1-0.7,0.2-1.2,0.4-1.6c0.2-0.4,0.4-0.7,0.6-0.8c0.2-0.2,0.5-0.2,0.9-0.2h5.3v-9.9c0-0.3,0.1-0.6,0.3-0.9c0.2-0.3,0.5-0.5,1-0.7
    c0.5-0.2,1.1-0.3,1.9-0.4c0.8-0.1,1.8-0.1,3-0.1c1.2,0,2.2,0,3.1,0.1c0.8,0.1,1.4,0.2,1.9,0.4c0.5,0.2,0.8,0.4,1,0.7
    c0.2,0.3,0.3,0.6,0.3,0.9v9.9h9.6c0.3,0,0.6,0.1,0.9,0.2c0.2,0.2,0.5,0.4,0.6,0.8c0.2,0.4,0.3,0.9,0.4,1.6
    c0.1,0.7,0.1,1.5,0.1,2.4c0,1.8-0.2,3.1-0.5,3.9c-0.3,0.8-0.8,1.2-1.4,1.2H634v20.8c0,2.4,0.4,4.2,1.1,5.4
    c0.8,1.2,2.1,1.8,4.1,1.8c0.7,0,1.3-0.1,1.8-0.2c0.5-0.1,1-0.2,1.4-0.4c0.4-0.1,0.8-0.3,1-0.4c0.3-0.1,0.5-0.2,0.8-0.2
    c0.2,0,0.4,0.1,0.6,0.2c0.2,0.1,0.3,0.3,0.4,0.7c0.1,0.3,0.2,0.8,0.3,1.4C645.6,155.6,645.6,156.4,645.6,157.3z"/>
  <path class="astst10" d="M683.1,121.5c0,1.2,0,2.2-0.1,2.9c-0.1,0.8-0.2,1.4-0.3,1.8c-0.1,0.4-0.3,0.7-0.5,0.9
    c-0.2,0.2-0.5,0.2-0.8,0.2c-0.3,0-0.6-0.1-0.9-0.2c-0.3-0.1-0.7-0.2-1.1-0.4c-0.4-0.1-0.9-0.3-1.4-0.4c-0.5-0.1-1-0.2-1.6-0.2
    c-0.7,0-1.4,0.1-2.1,0.4c-0.7,0.3-1.4,0.7-2.2,1.3s-1.5,1.4-2.3,2.4s-1.7,2.2-2.6,3.7v27.6c0,0.3-0.1,0.6-0.3,0.9
    c-0.2,0.2-0.5,0.5-1,0.6c-0.5,0.2-1.1,0.3-1.9,0.4c-0.8,0.1-1.8,0.1-3,0.1c-1.2,0-2.2,0-3-0.1c-0.8-0.1-1.4-0.2-1.9-0.4
    c-0.5-0.2-0.8-0.4-1-0.6c-0.2-0.2-0.3-0.5-0.3-0.9v-44.3c0-0.3,0.1-0.6,0.2-0.9c0.2-0.2,0.5-0.5,0.9-0.6c0.4-0.2,1-0.3,1.7-0.4
    c0.7-0.1,1.5-0.1,2.6-0.1c1.1,0,1.9,0,2.6,0.1c0.7,0.1,1.2,0.2,1.6,0.4c0.4,0.2,0.7,0.4,0.8,0.6c0.2,0.2,0.2,0.5,0.2,0.9v5.5
    c1.2-1.7,2.3-3,3.3-4.1c1-1.1,2-1.9,2.9-2.6c0.9-0.6,1.9-1.1,2.8-1.3c0.9-0.2,1.9-0.4,2.8-0.4c0.4,0,0.9,0,1.4,0.1s1,0.1,1.5,0.2
    c0.5,0.1,1,0.2,1.4,0.4c0.4,0.1,0.7,0.3,0.9,0.5c0.2,0.2,0.3,0.3,0.4,0.5c0.1,0.2,0.2,0.5,0.2,0.8c0.1,0.3,0.1,0.9,0.1,1.6
    S683.1,120.3,683.1,121.5z"/>
  <path class="astst10" d="M730.6,138.2c0,1.5-0.3,2.6-1,3.4c-0.7,0.7-1.6,1.1-2.8,1.1h-27c0,1.9,0.2,3.6,0.7,5.1s1.2,2.8,2.1,3.9
    c1,1.1,2.2,1.9,3.8,2.5c1.5,0.6,3.4,0.8,5.5,0.8c2.2,0,4.1-0.2,5.8-0.5c1.7-0.3,3.1-0.7,4.3-1c1.2-0.4,2.2-0.7,3-1
    c0.8-0.3,1.4-0.5,1.9-0.5c0.3,0,0.5,0.1,0.7,0.2c0.2,0.1,0.4,0.3,0.5,0.6c0.1,0.3,0.2,0.7,0.3,1.3c0,0.5,0.1,1.2,0.1,2.1
    c0,0.7,0,1.3,0,1.9c0,0.5-0.1,1-0.1,1.3c-0.1,0.4-0.2,0.7-0.3,0.9c-0.1,0.2-0.3,0.5-0.5,0.7c-0.2,0.2-0.8,0.5-1.8,0.9
    c-1,0.4-2.2,0.8-3.7,1.2c-1.5,0.4-3.2,0.7-5.1,1c-1.9,0.3-4,0.4-6.2,0.4c-3.9,0-7.4-0.5-10.4-1.5c-3-1-5.4-2.5-7.4-4.5
    c-2-2-3.5-4.6-4.4-7.6c-1-3.1-1.5-6.7-1.5-10.8c0-3.9,0.5-7.5,1.5-10.7c1-3.2,2.5-5.8,4.5-8c2-2.2,4.3-3.9,7.1-5
    c2.8-1.2,6-1.7,9.5-1.7c3.7,0,6.9,0.5,9.5,1.6c2.6,1.1,4.8,2.6,6.5,4.5c1.7,1.9,2.9,4.2,3.7,6.9c0.8,2.6,1.2,5.5,1.2,8.6V138.2z
      M718.5,134.7c0.1-3.5-0.6-6.3-2.1-8.3c-1.5-2-3.8-3-7-3c-1.6,0-3,0.3-4.1,0.9c-1.2,0.6-2.2,1.4-2.9,2.4c-0.8,1-1.4,2.2-1.8,3.6
    c-0.4,1.4-0.7,2.8-0.7,4.4H718.5z"/>
  <path class="astst10" d="M778.7,161.8c0,0.5-0.2,0.8-0.5,1.1c-0.3,0.3-0.9,0.5-1.6,0.6c-0.7,0.1-1.8,0.2-3.2,0.2
    c-1.5,0-2.6-0.1-3.3-0.2c-0.7-0.1-1.2-0.3-1.4-0.6c-0.3-0.3-0.4-0.6-0.4-1.1v-3.5c-1.8,2-3.9,3.5-6.2,4.6
    c-2.3,1.1-4.9,1.6-7.8,1.6c-2.4,0-4.5-0.3-6.5-0.9c-2-0.6-3.7-1.5-5.1-2.7c-1.4-1.2-2.6-2.7-3.4-4.5s-1.2-3.9-1.2-6.3
    c0-2.6,0.5-4.8,1.5-6.7c1-1.9,2.5-3.5,4.5-4.7s4.5-2.2,7.5-2.8c3-0.6,6.4-0.9,10.4-0.9h4.3v-2.7c0-1.4-0.1-2.6-0.4-3.7
    s-0.7-1.9-1.4-2.6c-0.6-0.7-1.5-1.2-2.6-1.5c-1.1-0.3-2.4-0.5-4-0.5c-2.1,0-3.9,0.2-5.6,0.7c-1.6,0.5-3.1,1-4.3,1.5
    c-1.3,0.6-2.3,1.1-3.2,1.5c-0.8,0.5-1.5,0.7-2.1,0.7c-0.4,0-0.7-0.1-1-0.3c-0.3-0.2-0.5-0.6-0.7-1c-0.2-0.4-0.3-1-0.4-1.6
    c-0.1-0.6-0.1-1.3-0.1-2.1c0-1,0.1-1.8,0.2-2.4c0.2-0.6,0.5-1.1,0.9-1.6c0.5-0.5,1.3-1,2.4-1.6c1.2-0.6,2.5-1.1,4.1-1.6
    c1.6-0.5,3.3-0.9,5.1-1.2c1.8-0.3,3.7-0.5,5.7-0.5c3.5,0,6.4,0.3,8.9,1c2.5,0.7,4.5,1.7,6.1,3.1c1.6,1.4,2.7,3.2,3.5,5.4
    c0.7,2.2,1.1,4.9,1.1,7.9V161.8z M766.4,142.9h-4.8c-2,0-3.7,0.1-5.2,0.4c-1.4,0.3-2.6,0.7-3.5,1.3s-1.5,1.3-2,2.2
    c-0.4,0.8-0.6,1.8-0.6,2.9c0,1.9,0.6,3.3,1.8,4.4c1.2,1.1,2.8,1.6,4.9,1.6c1.8,0,3.4-0.4,4.8-1.3c1.5-0.9,3-2.2,4.5-3.9V142.9z"/>
  <path class="astst10" d="M861.6,161.7c0,0.3-0.1,0.6-0.3,0.9c-0.2,0.2-0.5,0.5-1,0.6s-1.1,0.3-1.9,0.4c-0.8,0.1-1.8,0.1-3,0.1
    c-1.3,0-2.3,0-3.1-0.1c-0.8-0.1-1.4-0.2-1.9-0.4c-0.5-0.2-0.8-0.4-1-0.6c-0.2-0.2-0.3-0.5-0.3-0.9v-26.3c0-1.5-0.1-2.8-0.4-4.1
    c-0.3-1.2-0.7-2.3-1.3-3.2c-0.6-0.9-1.3-1.6-2.2-2c-0.9-0.5-1.9-0.7-3.2-0.7c-1.5,0-3,0.6-4.5,1.7s-3.2,2.8-5,5.1v29.5
    c0,0.3-0.1,0.6-0.3,0.9c-0.2,0.2-0.5,0.5-1,0.6c-0.5,0.2-1.1,0.3-1.9,0.4c-0.8,0.1-1.8,0.1-3,0.1c-1.2,0-2.2,0-3-0.1
    c-0.8-0.1-1.4-0.2-1.9-0.4c-0.5-0.2-0.8-0.4-1-0.6c-0.2-0.2-0.3-0.5-0.3-0.9v-26.3c0-1.5-0.1-2.8-0.4-4.1
    c-0.3-1.2-0.7-2.3-1.3-3.2c-0.6-0.9-1.3-1.6-2.2-2c-0.9-0.5-1.9-0.7-3.1-0.7c-1.5,0-3,0.6-4.6,1.7s-3.2,2.8-4.9,5.1v29.5
    c0,0.3-0.1,0.6-0.3,0.9c-0.2,0.2-0.5,0.5-1,0.6c-0.5,0.2-1.1,0.3-1.9,0.4c-0.8,0.1-1.8,0.1-3,0.1c-1.2,0-2.2,0-3-0.1
    c-0.8-0.1-1.4-0.2-1.9-0.4c-0.5-0.2-0.8-0.4-1-0.6c-0.2-0.2-0.3-0.5-0.3-0.9v-44.3c0-0.3,0.1-0.6,0.2-0.9c0.2-0.2,0.5-0.5,0.9-0.6
    c0.4-0.2,1-0.3,1.7-0.4c0.7-0.1,1.5-0.1,2.6-0.1c1.1,0,1.9,0,2.6,0.1c0.7,0.1,1.2,0.2,1.6,0.4c0.4,0.2,0.7,0.4,0.8,0.6
    c0.2,0.2,0.2,0.5,0.2,0.9v5.1c2.5-2.6,4.9-4.6,7.3-6c2.4-1.3,5-2,7.6-2c1.8,0,3.5,0.2,4.9,0.6c1.5,0.4,2.8,0.9,3.9,1.6
    c1.1,0.7,2.1,1.6,3,2.6c0.8,1,1.5,2.1,2.1,3.3c1.3-1.4,2.6-2.6,3.9-3.7c1.3-1,2.5-1.9,3.8-2.5c1.2-0.6,2.5-1.1,3.7-1.4
    c1.2-0.3,2.5-0.5,3.8-0.5c2.9,0,5.4,0.5,7.5,1.5c2,1,3.7,2.3,4.9,4c1.2,1.7,2.1,3.7,2.7,6c0.5,2.3,0.8,4.7,0.8,7.3V161.7z"/>
  <path class="astst10" d="M914.8,138.2c0,1.5-0.3,2.6-1,3.4c-0.7,0.7-1.6,1.1-2.8,1.1h-27c0,1.9,0.2,3.6,0.7,5.1s1.2,2.8,2.1,3.9
    c1,1.1,2.2,1.9,3.8,2.5c1.5,0.6,3.4,0.8,5.5,0.8c2.2,0,4.1-0.2,5.8-0.5c1.7-0.3,3.1-0.7,4.3-1c1.2-0.4,2.2-0.7,3-1
    c0.8-0.3,1.4-0.5,1.9-0.5c0.3,0,0.5,0.1,0.7,0.2c0.2,0.1,0.4,0.3,0.5,0.6c0.1,0.3,0.2,0.7,0.3,1.3c0,0.5,0.1,1.2,0.1,2.1
    c0,0.7,0,1.3,0,1.9c0,0.5-0.1,1-0.1,1.3c-0.1,0.4-0.2,0.7-0.3,0.9c-0.1,0.2-0.3,0.5-0.5,0.7c-0.2,0.2-0.8,0.5-1.8,0.9
    c-1,0.4-2.2,0.8-3.7,1.2c-1.5,0.4-3.2,0.7-5.1,1c-1.9,0.3-4,0.4-6.2,0.4c-3.9,0-7.4-0.5-10.4-1.5c-3-1-5.4-2.5-7.4-4.5
    c-2-2-3.5-4.6-4.4-7.6c-1-3.1-1.5-6.7-1.5-10.8c0-3.9,0.5-7.5,1.5-10.7c1-3.2,2.5-5.8,4.5-8c2-2.2,4.3-3.9,7.1-5
    c2.8-1.2,6-1.7,9.5-1.7c3.7,0,6.9,0.5,9.5,1.6c2.6,1.1,4.8,2.6,6.5,4.5c1.7,1.9,2.9,4.2,3.7,6.9c0.8,2.6,1.2,5.5,1.2,8.6V138.2z
      M902.7,134.7c0.1-3.5-0.6-6.3-2.1-8.3c-1.5-2-3.8-3-7-3c-1.6,0-3,0.3-4.1,0.9c-1.2,0.6-2.2,1.4-2.9,2.4c-0.8,1-1.4,2.2-1.8,3.6
    c-0.4,1.4-0.7,2.8-0.7,4.4H902.7z"/>
  <path class="astst10" d="M953.6,121.5c0,1.2,0,2.2-0.1,2.9c-0.1,0.8-0.2,1.4-0.3,1.8c-0.1,0.4-0.3,0.7-0.5,0.9
    c-0.2,0.2-0.5,0.2-0.8,0.2c-0.3,0-0.6-0.1-0.9-0.2c-0.3-0.1-0.7-0.2-1.1-0.4c-0.4-0.1-0.9-0.3-1.4-0.4c-0.5-0.1-1-0.2-1.6-0.2
    c-0.7,0-1.4,0.1-2.1,0.4c-0.7,0.3-1.4,0.7-2.2,1.3s-1.5,1.4-2.3,2.4s-1.7,2.2-2.6,3.7v27.6c0,0.3-0.1,0.6-0.3,0.9
    c-0.2,0.2-0.5,0.5-1,0.6c-0.5,0.2-1.1,0.3-1.9,0.4c-0.8,0.1-1.8,0.1-3,0.1c-1.2,0-2.2,0-3-0.1c-0.8-0.1-1.4-0.2-1.9-0.4
    c-0.5-0.2-0.8-0.4-1-0.6c-0.2-0.2-0.3-0.5-0.3-0.9v-44.3c0-0.3,0.1-0.6,0.2-0.9c0.2-0.2,0.5-0.5,0.9-0.6c0.4-0.2,1-0.3,1.7-0.4
    c0.7-0.1,1.5-0.1,2.6-0.1c1.1,0,1.9,0,2.6,0.1c0.7,0.1,1.2,0.2,1.6,0.4c0.4,0.2,0.7,0.4,0.8,0.6c0.2,0.2,0.2,0.5,0.2,0.9v5.5
    c1.2-1.7,2.3-3,3.3-4.1c1-1.1,2-1.9,2.9-2.6c0.9-0.6,1.9-1.1,2.8-1.3c0.9-0.2,1.9-0.4,2.8-0.4c0.4,0,0.9,0,1.4,0.1s1,0.1,1.5,0.2
    c0.5,0.1,1,0.2,1.4,0.4c0.4,0.1,0.7,0.3,0.9,0.5c0.2,0.2,0.3,0.3,0.4,0.5c0.1,0.2,0.2,0.5,0.2,0.8c0.1,0.3,0.1,0.9,0.1,1.6
    S953.6,120.3,953.6,121.5z"/>
</g>
</svg>
