<?xml version="1.0" encoding="utf-8"?>
<svg version="1.1" id="Layer_1" xmlns="http://www.w3.org/2000/svg" xmlns:xlink="http://www.w3.org/1999/xlink" x="0px" y="0px"
	 viewBox="0 0 951 256" style="enable-background:new 0 0 951 256;" xml:space="preserve">
<style type="text/css">
	.opst0{enable-background:new    ;}
	.opst1{fill:#FFFFFF;}
	.opst2{opacity:0.75;fill:#FFFFFF;enable-background:new    ;}
	.opst3{opacity:0.45;fill:#FFFFFF;enable-background:new    ;}
	.opst4{opacity:0.55;fill:#FFFFFF;enable-background:new    ;}
	.opst5{opacity:0.25;fill:#FFFFFF;enable-background:new    ;}
</style>
<g>
	<g class="opst0">
		<path class="opst1" d="M371,104.2c0,1,0,1.8-0.1,2.5c-0.1,0.7-0.2,1.2-0.4,1.6c-0.2,0.4-0.4,0.7-0.6,0.9c-0.2,0.2-0.5,0.3-0.8,0.3
			h-16v51.7c0,0.3-0.1,0.6-0.3,0.9c-0.2,0.3-0.6,0.5-1.1,0.6c-0.5,0.2-1.2,0.3-2,0.4c-0.8,0.1-1.9,0.1-3.2,0.1c-1.3,0-2.3,0-3.2-0.1
			c-0.8-0.1-1.5-0.2-2-0.4c-0.5-0.2-0.9-0.4-1.1-0.6c-0.2-0.3-0.3-0.6-0.3-0.9v-51.7h-16c-0.3,0-0.6-0.1-0.8-0.3
			c-0.2-0.2-0.4-0.5-0.6-0.9c-0.2-0.4-0.3-1-0.4-1.6c-0.1-0.7-0.1-1.5-0.1-2.5c0-1,0-1.8,0.1-2.5c0.1-0.7,0.2-1.2,0.4-1.7
			c0.2-0.4,0.4-0.7,0.6-0.9c0.2-0.2,0.5-0.3,0.8-0.3H369c0.3,0,0.6,0.1,0.8,0.3c0.2,0.2,0.5,0.5,0.6,0.9c0.2,0.4,0.3,1,0.4,1.7
			C370.9,102.3,371,103.2,371,104.2z"/>
		<path class="opst1" d="M401,121.1c0,1.2,0,2.2-0.1,2.9c-0.1,0.8-0.2,1.4-0.3,1.8c-0.1,0.4-0.3,0.7-0.5,0.9c-0.2,0.2-0.5,0.2-0.8,0.2
			s-0.6-0.1-0.9-0.2c-0.3-0.1-0.7-0.2-1.1-0.4c-0.4-0.1-0.9-0.3-1.4-0.4c-0.5-0.1-1-0.2-1.6-0.2c-0.7,0-1.4,0.1-2.1,0.4
			c-0.7,0.3-1.4,0.7-2.2,1.3c-0.8,0.6-1.5,1.4-2.3,2.4s-1.7,2.2-2.6,3.7V161c0,0.3-0.1,0.6-0.3,0.9c-0.2,0.2-0.5,0.5-1,0.6
			c-0.5,0.2-1.1,0.3-1.9,0.4c-0.8,0.1-1.8,0.1-3,0.1c-1.2,0-2.2,0-3-0.1c-0.8-0.1-1.4-0.2-1.9-0.4s-0.8-0.4-1-0.6
			c-0.2-0.2-0.3-0.5-0.3-0.9v-44.2c0-0.3,0.1-0.6,0.2-0.9c0.2-0.2,0.5-0.5,0.9-0.6c0.4-0.2,1-0.3,1.7-0.4c0.7-0.1,1.5-0.1,2.6-0.1
			c1.1,0,1.9,0,2.6,0.1c0.7,0.1,1.2,0.2,1.6,0.4c0.4,0.2,0.7,0.4,0.8,0.6c0.2,0.2,0.2,0.5,0.2,0.9v5.5c1.2-1.7,2.3-3,3.3-4.1
			c1-1.1,2-1.9,2.9-2.6c0.9-0.6,1.9-1.1,2.8-1.3c0.9-0.2,1.9-0.4,2.8-0.4c0.4,0,0.9,0,1.4,0.1c0.5,0,1,0.1,1.5,0.2
			c0.5,0.1,1,0.2,1.4,0.4c0.4,0.1,0.7,0.3,0.9,0.5c0.2,0.2,0.3,0.3,0.4,0.5c0.1,0.2,0.2,0.5,0.2,0.8c0.1,0.3,0.1,0.9,0.1,1.6
			C401,119,401,119.9,401,121.1z"/>
		<path class="opst1" d="M448.3,137.8c0,1.5-0.3,2.6-1,3.4c-0.7,0.7-1.6,1.1-2.8,1.1h-26.9c0,1.9,0.2,3.6,0.7,5.1
			c0.4,1.5,1.2,2.8,2.1,3.9c1,1.1,2.2,1.9,3.8,2.5c1.5,0.6,3.4,0.8,5.5,0.8c2.2,0,4.1-0.2,5.8-0.5c1.7-0.3,3.1-0.7,4.3-1
			c1.2-0.4,2.2-0.7,3-1s1.4-0.5,1.9-0.5c0.3,0,0.5,0.1,0.7,0.2c0.2,0.1,0.4,0.3,0.5,0.6s0.2,0.7,0.3,1.3c0,0.5,0.1,1.2,0.1,2.1
			c0,0.7,0,1.3,0,1.9c0,0.5-0.1,1-0.1,1.3c-0.1,0.4-0.2,0.7-0.3,0.9c-0.1,0.2-0.3,0.5-0.5,0.7c-0.2,0.2-0.8,0.5-1.8,0.9
			c-1,0.4-2.2,0.8-3.7,1.2c-1.5,0.4-3.2,0.7-5.1,1c-1.9,0.3-4,0.4-6.2,0.4c-3.9,0-7.4-0.5-10.4-1.5c-3-1-5.4-2.5-7.4-4.5
			c-2-2-3.5-4.6-4.4-7.6c-1-3.1-1.5-6.7-1.5-10.8c0-3.9,0.5-7.5,1.5-10.7c1-3.2,2.5-5.8,4.5-8c2-2.2,4.3-3.9,7.1-5
			c2.8-1.2,6-1.7,9.5-1.7c3.7,0,6.9,0.5,9.5,1.6s4.8,2.6,6.5,4.5c1.7,1.9,2.9,4.2,3.7,6.9c0.8,2.6,1.2,5.5,1.2,8.6L448.3,137.8
			L448.3,137.8z M436.2,134.3c0.1-3.5-0.6-6.3-2.1-8.3c-1.5-2-3.8-3-7-3c-1.6,0-3,0.3-4.1,0.9c-1.2,0.6-2.2,1.4-2.9,2.4
			c-0.8,1-1.4,2.2-1.8,3.6c-0.4,1.4-0.7,2.8-0.7,4.4H436.2z"/>
		<path class="opst1" d="M500.7,161.2c0,0.3-0.1,0.6-0.3,0.9c-0.2,0.2-0.5,0.5-1,0.6c-0.5,0.2-1.1,0.3-1.9,0.4c-0.8,0.1-1.8,0.1-3,0.1
			s-2.2,0-3.1-0.1c-0.8-0.1-1.4-0.2-1.9-0.4c-0.5-0.2-0.8-0.4-1-0.6s-0.3-0.5-0.3-0.9V136c0-2.2-0.2-3.8-0.5-5.1
			c-0.3-1.2-0.8-2.3-1.4-3.2c-0.6-0.9-1.4-1.6-2.3-2c-0.9-0.5-2-0.7-3.3-0.7c-1.6,0-3.2,0.6-4.8,1.7c-1.6,1.2-3.3,2.8-5.1,5.1v29.4
			c0,0.3-0.1,0.6-0.3,0.9c-0.2,0.2-0.5,0.5-1,0.6c-0.5,0.2-1.1,0.3-1.9,0.4c-0.8,0.1-1.8,0.1-3,0.1c-1.2,0-2.2,0-3-0.1
			c-0.8-0.1-1.4-0.2-1.9-0.4c-0.5-0.2-0.8-0.4-1-0.6s-0.3-0.5-0.3-0.9V117c0-0.3,0.1-0.6,0.2-0.9c0.2-0.2,0.5-0.5,0.9-0.6
			c0.4-0.2,1-0.3,1.7-0.4c0.7-0.1,1.5-0.1,2.6-0.1c1.1,0,1.9,0,2.6,0.1c0.7,0.1,1.2,0.2,1.6,0.4c0.4,0.2,0.7,0.4,0.8,0.6
			c0.2,0.2,0.2,0.5,0.2,0.9v5.1c2.5-2.6,4.9-4.6,7.5-6c2.5-1.3,5.2-2,7.9-2c3,0,5.6,0.5,7.6,1.5c2.1,1,3.7,2.3,5,4s2.2,3.7,2.8,6
			c0.6,2.3,0.8,5,0.8,8.2L500.7,161.2L500.7,161.2z"/>
		<path class="opst1" d="M554.8,161.2c0,0.4-0.1,0.7-0.2,0.9c-0.2,0.2-0.4,0.5-0.8,0.6c-0.4,0.2-0.9,0.3-1.6,0.3s-1.5,0.1-2.5,0.1
			c-1.1,0-1.9,0-2.6-0.1c-0.7-0.1-1.2-0.2-1.6-0.3c-0.4-0.2-0.7-0.4-0.9-0.6s-0.3-0.6-0.3-0.9v-4.9c-2.3,2.5-4.7,4.4-7.2,5.7
			c-2.5,1.4-5.3,2-8.3,2c-3.4,0-6.2-0.7-8.6-2c-2.4-1.3-4.2-3.1-5.7-5.3s-2.5-4.8-3.2-7.8s-1-6.1-1-9.4c0-3.9,0.4-7.5,1.3-10.6
			c0.8-3.1,2.1-5.8,3.7-8c1.6-2.2,3.6-3.9,6.1-5.1c2.4-1.2,5.2-1.8,8.3-1.8c2.5,0,4.7,0.5,6.8,1.5c2,1,4,2.5,6,4.4V96.1
			c0-0.3,0.1-0.6,0.3-0.9s0.5-0.5,1-0.7c0.5-0.2,1.1-0.3,1.9-0.4c0.8-0.1,1.8-0.1,3-0.1s2.2,0,3,0.1c0.8,0.1,1.4,0.2,1.9,0.4
			c0.5,0.2,0.8,0.4,1,0.7c0.2,0.3,0.3,0.6,0.3,0.9L554.8,161.2L554.8,161.2z M542.3,131.7c-1.8-2.3-3.5-4-5.1-5.2
			c-1.6-1.2-3.4-1.8-5.1-1.8c-1.6,0-3,0.4-4.2,1.2c-1.2,0.8-2.1,1.9-2.8,3.3c-0.7,1.4-1.2,2.9-1.6,4.5c-0.3,1.7-0.5,3.4-0.5,5.1
			c0,1.9,0.1,3.7,0.4,5.4c0.3,1.8,0.8,3.3,1.5,4.7c0.7,1.4,1.6,2.5,2.7,3.3c1.1,0.8,2.5,1.2,4.3,1.2c0.9,0,1.7-0.1,2.5-0.4
			c0.8-0.2,1.6-0.7,2.5-1.2c0.8-0.6,1.7-1.3,2.6-2.2s1.9-2,2.9-3.4L542.3,131.7L542.3,131.7z"/>
		<path class="opst1" d="M606,143.7c0,3.4-0.6,6.3-1.9,8.9c-1.3,2.6-3,4.7-5.1,6.4c-2.2,1.7-4.7,3-7.6,3.8c-2.9,0.9-6,1.3-9.2,1.3
			c-2.2,0-4.3-0.2-6.2-0.5s-3.6-0.8-5-1.3c-1.5-0.5-2.7-1.1-3.7-1.6c-1-0.6-1.7-1.1-2.1-1.5c-0.4-0.4-0.7-1.1-0.9-1.9
			c-0.2-0.8-0.3-2-0.3-3.5c0-1,0-1.9,0.1-2.6c0.1-0.7,0.2-1.3,0.3-1.7c0.1-0.4,0.3-0.7,0.6-0.9c0.2-0.2,0.5-0.3,0.9-0.3
			c0.5,0,1.1,0.3,2,0.8c0.8,0.5,1.9,1.2,3.3,1.8c1.3,0.7,2.9,1.3,4.7,1.8c1.8,0.5,4,0.8,6.4,0.8c1.6,0,3-0.2,4.3-0.6
			s2.3-0.9,3.2-1.6c0.9-0.7,1.5-1.6,2-2.6s0.7-2.2,0.7-3.4c0-1.5-0.4-2.7-1.2-3.8c-0.8-1.1-1.8-2-3.1-2.8c-1.3-0.8-2.7-1.6-4.3-2.3
			s-3.3-1.5-5-2.3c-1.7-0.8-3.4-1.7-5-2.7c-1.6-1-3.1-2.2-4.3-3.6c-1.3-1.4-2.3-3.1-3.1-5c-0.8-1.9-1.2-4.2-1.2-6.9
			c0-3.1,0.6-5.8,1.7-8.1c1.1-2.3,2.7-4.3,4.6-5.8c1.9-1.5,4.2-2.7,6.9-3.5c2.6-0.8,5.4-1.1,8.4-1.1c1.5,0,3,0.1,4.6,0.3
			c1.5,0.2,2.9,0.5,4.3,0.9c1.4,0.4,2.5,0.8,3.5,1.3s1.7,0.9,2,1.2c0.3,0.3,0.6,0.6,0.7,0.8c0.1,0.2,0.2,0.5,0.3,0.9
			c0.1,0.4,0.1,0.9,0.2,1.4c0,0.6,0,1.3,0,2.2c0,1,0,1.8-0.1,2.4c0,0.7-0.1,1.2-0.2,1.6c-0.1,0.4-0.3,0.7-0.5,0.9
			c-0.2,0.2-0.5,0.3-0.9,0.3c-0.4,0-0.9-0.2-1.7-0.7c-0.8-0.5-1.8-1-2.9-1.5c-1.1-0.5-2.5-1-4-1.5c-1.5-0.4-3.2-0.7-5-0.7
			c-1.4,0-2.7,0.2-3.7,0.5c-1.1,0.3-1.9,0.8-2.7,1.4c-0.7,0.6-1.2,1.3-1.6,2.2c-0.3,0.9-0.5,1.8-0.5,2.7c0,1.4,0.4,2.7,1.2,3.7
			c0.8,1,1.8,2,3.1,2.8c1.3,0.8,2.8,1.6,4.4,2.3c1.7,0.7,3.3,1.5,5.1,2.3c1.7,0.8,3.4,1.7,5.1,2.7c1.7,1,3.1,2.2,4.4,3.6
			c1.3,1.4,2.3,3.1,3.1,5C605.6,138.9,606,141.1,606,143.7z"/>
		<path class="opst1" d="M641.2,156.8c0,1.5-0.1,2.6-0.3,3.4s-0.4,1.3-0.7,1.6c-0.3,0.3-0.7,0.6-1.3,0.8c-0.6,0.2-1.3,0.5-2,0.6
			c-0.8,0.2-1.6,0.3-2.5,0.4c-0.9,0.1-1.8,0.1-2.8,0.1c-2.5,0-4.6-0.3-6.5-0.9s-3.3-1.6-4.5-2.9c-1.2-1.3-2.1-3-2.6-4.9
			c-0.6-2-0.8-4.3-0.8-7.1v-22.6H612c-0.6,0-1.1-0.4-1.4-1.2c-0.3-0.8-0.5-2.1-0.5-3.9c0-1,0-1.8,0.1-2.4c0.1-0.7,0.2-1.2,0.4-1.6
			c0.2-0.4,0.4-0.7,0.6-0.8c0.2-0.2,0.5-0.2,0.9-0.2h5.3v-9.9c0-0.3,0.1-0.6,0.3-0.9c0.2-0.3,0.5-0.5,1-0.7c0.5-0.2,1.1-0.3,1.9-0.4
			c0.8-0.1,1.8-0.1,3-0.1s2.2,0,3.1,0.1c0.8,0.1,1.4,0.2,1.9,0.4c0.5,0.2,0.8,0.4,1,0.7c0.2,0.3,0.3,0.6,0.3,0.9v9.9h9.6
			c0.3,0,0.6,0.1,0.9,0.2c0.2,0.2,0.5,0.4,0.6,0.8c0.2,0.4,0.3,0.9,0.4,1.6c0.1,0.7,0.1,1.5,0.1,2.4c0,1.8-0.2,3.1-0.5,3.9
			s-0.8,1.2-1.4,1.2h-9.9v20.7c0,2.4,0.4,4.2,1.1,5.4c0.8,1.2,2.1,1.8,4.1,1.8c0.7,0,1.3-0.1,1.8-0.2c0.5-0.1,1-0.2,1.4-0.4
			c0.4-0.1,0.8-0.3,1-0.4c0.3-0.1,0.5-0.2,0.8-0.2c0.2,0,0.4,0.1,0.6,0.2c0.2,0.1,0.3,0.3,0.4,0.7c0.1,0.3,0.2,0.8,0.3,1.4
			C641.2,155.1,641.2,155.9,641.2,156.8z"/>
		<path class="opst1" d="M678.6,121.1c0,1.2,0,2.2-0.1,2.9c-0.1,0.8-0.2,1.4-0.3,1.8c-0.1,0.4-0.3,0.7-0.5,0.9
			c-0.2,0.2-0.5,0.2-0.8,0.2c-0.3,0-0.6-0.1-0.9-0.2c-0.3-0.1-0.7-0.2-1.1-0.4c-0.4-0.1-0.9-0.3-1.4-0.4c-0.5-0.1-1-0.2-1.6-0.2
			c-0.7,0-1.4,0.1-2.1,0.4c-0.7,0.3-1.4,0.7-2.2,1.3c-0.8,0.6-1.5,1.4-2.3,2.4s-1.7,2.2-2.6,3.7V161c0,0.3-0.1,0.6-0.3,0.9
			c-0.2,0.2-0.5,0.5-1,0.6c-0.5,0.2-1.1,0.3-1.9,0.4c-0.8,0.1-1.8,0.1-3,0.1s-2.2,0-3-0.1c-0.8-0.1-1.4-0.2-1.9-0.4
			c-0.5-0.2-0.8-0.4-1-0.6c-0.2-0.2-0.3-0.5-0.3-0.9v-44.2c0-0.3,0.1-0.6,0.2-0.9c0.2-0.2,0.5-0.5,0.9-0.6c0.4-0.2,1-0.3,1.7-0.4
			c0.7-0.1,1.5-0.1,2.6-0.1s1.9,0,2.6,0.1c0.7,0.1,1.2,0.2,1.6,0.4c0.4,0.2,0.7,0.4,0.8,0.6c0.2,0.2,0.2,0.5,0.2,0.9v5.5
			c1.2-1.7,2.3-3,3.3-4.1c1-1.1,2-1.9,2.9-2.6c0.9-0.6,1.9-1.1,2.8-1.3c0.9-0.2,1.9-0.4,2.8-0.4c0.4,0,0.9,0,1.4,0.1
			c0.5,0.1,1,0.1,1.5,0.2c0.5,0.1,1,0.2,1.4,0.4c0.4,0.1,0.7,0.3,0.9,0.5c0.2,0.2,0.3,0.3,0.4,0.5c0.1,0.2,0.2,0.5,0.2,0.8
			c0.1,0.3,0.1,0.9,0.1,1.6C678.6,118.7,678.6,119.9,678.6,121.1z"/>
		<path class="opst1" d="M725.9,137.8c0,1.5-0.3,2.6-1,3.4c-0.7,0.7-1.6,1.1-2.8,1.1h-26.9c0,1.9,0.2,3.6,0.7,5.1
			c0.5,1.5,1.2,2.8,2.1,3.9c1,1.1,2.2,1.9,3.8,2.5c1.5,0.6,3.4,0.8,5.5,0.8c2.2,0,4.1-0.2,5.8-0.5c1.7-0.3,3.1-0.7,4.3-1
			c1.2-0.4,2.2-0.7,3-1s1.4-0.5,1.9-0.5c0.3,0,0.5,0.1,0.7,0.2c0.2,0.1,0.4,0.3,0.5,0.6c0.1,0.3,0.2,0.7,0.3,1.3
			c0,0.5,0.1,1.2,0.1,2.1c0,0.7,0,1.3,0,1.9c0,0.5-0.1,1-0.1,1.3c-0.1,0.4-0.2,0.7-0.3,0.9c-0.1,0.2-0.3,0.5-0.5,0.7
			c-0.2,0.2-0.8,0.5-1.8,0.9c-1,0.4-2.2,0.8-3.7,1.2c-1.5,0.4-3.2,0.7-5.1,1c-1.9,0.3-4,0.4-6.2,0.4c-3.9,0-7.4-0.5-10.4-1.5
			c-3-1-5.4-2.5-7.4-4.5c-2-2-3.5-4.6-4.4-7.6c-1-3.1-1.5-6.7-1.5-10.8c0-3.9,0.5-7.5,1.5-10.7c1-3.2,2.5-5.8,4.5-8
			c2-2.2,4.3-3.9,7.1-5c2.8-1.2,6-1.7,9.5-1.7c3.7,0,6.9,0.5,9.5,1.6c2.6,1.1,4.8,2.6,6.5,4.5s2.9,4.2,3.7,6.9
			c0.8,2.6,1.2,5.5,1.2,8.6L725.9,137.8L725.9,137.8z M713.8,134.3c0.1-3.5-0.6-6.3-2.1-8.3s-3.8-3-7-3c-1.6,0-3,0.3-4.1,0.9
			c-1.2,0.6-2.2,1.4-2.9,2.4c-0.8,1-1.4,2.2-1.8,3.6c-0.4,1.4-0.7,2.8-0.7,4.4H713.8z"/>
		<path class="opst1" d="M773.8,161.3c0,0.5-0.2,0.8-0.5,1.1c-0.3,0.3-0.9,0.5-1.6,0.6c-0.7,0.1-1.8,0.2-3.2,0.2
			c-1.5,0-2.6-0.1-3.3-0.2c-0.7-0.1-1.2-0.3-1.4-0.6c-0.3-0.3-0.4-0.6-0.4-1.1v-3.5c-1.8,2-3.9,3.5-6.2,4.6
			c-2.3,1.1-4.9,1.6-7.8,1.6c-2.4,0-4.5-0.3-6.5-0.9c-2-0.6-3.7-1.5-5.1-2.7c-1.4-1.2-2.6-2.7-3.4-4.5c-0.8-1.8-1.2-3.9-1.2-6.3
			c0-2.6,0.5-4.8,1.5-6.7c1-1.9,2.5-3.5,4.5-4.7c2-1.2,4.5-2.2,7.5-2.8c3-0.6,6.4-0.9,10.4-0.9h4.3v-2.7c0-1.4-0.1-2.6-0.4-3.7
			c-0.3-1.1-0.7-1.9-1.4-2.6c-0.6-0.7-1.5-1.2-2.6-1.5c-1.1-0.3-2.4-0.5-4-0.5c-2.1,0-3.9,0.2-5.6,0.7c-1.6,0.5-3.1,1-4.3,1.5
			c-1.3,0.6-2.3,1.1-3.2,1.5c-0.8,0.5-1.5,0.7-2.1,0.7c-0.4,0-0.7-0.1-1-0.3c-0.3-0.2-0.5-0.6-0.7-1c-0.2-0.4-0.3-1-0.4-1.6
			s-0.1-1.3-0.1-2.1c0-1,0.1-1.8,0.2-2.4c0.2-0.6,0.5-1.1,0.9-1.6c0.5-0.5,1.3-1,2.4-1.6c1.2-0.6,2.5-1.1,4.1-1.6s3.3-0.9,5.1-1.2
			c1.8-0.3,3.7-0.5,5.7-0.5c3.5,0,6.4,0.3,8.9,1c2.5,0.7,4.5,1.7,6.1,3.1c1.6,1.4,2.7,3.2,3.5,5.4c0.7,2.2,1.1,4.9,1.1,7.9v29.8
			H773.8z M761.5,142.5h-4.8c-2,0-3.7,0.1-5.2,0.4c-1.4,0.3-2.6,0.7-3.5,1.3c-0.9,0.6-1.5,1.3-2,2.2c-0.4,0.8-0.6,1.8-0.6,2.9
			c0,1.9,0.6,3.3,1.8,4.4c1.2,1.1,2.8,1.6,4.9,1.6c1.8,0,3.4-0.4,4.8-1.3c1.5-0.9,3-2.2,4.5-3.9L761.5,142.5L761.5,142.5z"/>
		<path class="opst1" d="M856.4,161.2c0,0.3-0.1,0.6-0.3,0.9c-0.2,0.2-0.5,0.5-1,0.6c-0.5,0.1-1.1,0.3-1.9,0.4c-0.8,0.1-1.8,0.1-3,0.1
			c-1.3,0-2.3,0-3.1-0.1s-1.4-0.2-1.9-0.4c-0.5-0.2-0.8-0.4-1-0.6s-0.3-0.5-0.3-0.9V135c0-1.5-0.1-2.8-0.4-4.1
			c-0.3-1.2-0.7-2.3-1.3-3.2c-0.6-0.9-1.3-1.6-2.2-2c-0.9-0.5-1.9-0.7-3.2-0.7c-1.5,0-3,0.6-4.5,1.7c-1.5,1.1-3.2,2.8-5,5.1v29.4
			c0,0.3-0.1,0.6-0.3,0.9c-0.2,0.2-0.5,0.5-1,0.6c-0.5,0.2-1.1,0.3-1.9,0.4c-0.8,0.1-1.8,0.1-3,0.1c-1.2,0-2.2,0-3-0.1
			s-1.4-0.2-1.9-0.4c-0.5-0.2-0.8-0.4-1-0.6s-0.3-0.5-0.3-0.9V135c0-1.5-0.1-2.8-0.4-4.1c-0.3-1.2-0.7-2.3-1.3-3.2
			c-0.6-0.9-1.3-1.6-2.2-2c-0.9-0.5-1.9-0.7-3.1-0.7c-1.5,0-3,0.6-4.6,1.7c-1.6,1.1-3.2,2.8-4.9,5.1v29.4c0,0.3-0.1,0.6-0.3,0.9
			c-0.2,0.2-0.5,0.5-1,0.6c-0.5,0.2-1.1,0.3-1.9,0.4c-0.8,0.1-1.8,0.1-3,0.1s-2.2,0-3-0.1c-0.8-0.1-1.4-0.2-1.9-0.4
			c-0.5-0.2-0.8-0.4-1-0.6s-0.3-0.5-0.3-0.9V117c0-0.3,0.1-0.6,0.2-0.9c0.2-0.2,0.5-0.5,0.9-0.6c0.4-0.2,1-0.3,1.7-0.4
			c0.7-0.1,1.5-0.1,2.6-0.1c1.1,0,1.9,0,2.6,0.1c0.7,0.1,1.2,0.2,1.6,0.4c0.4,0.2,0.7,0.4,0.8,0.6c0.2,0.2,0.2,0.5,0.2,0.9v5.1
			c2.5-2.6,4.9-4.6,7.3-6c2.4-1.3,5-2,7.6-2c1.8,0,3.5,0.2,4.9,0.6c1.5,0.4,2.8,0.9,3.9,1.6c1.1,0.7,2.1,1.6,3,2.6
			c0.8,1,1.5,2.1,2.1,3.3c1.3-1.4,2.6-2.6,3.9-3.7c1.3-1,2.5-1.9,3.8-2.5c1.2-0.6,2.5-1.1,3.7-1.4c1.2-0.3,2.5-0.5,3.8-0.5
			c2.9,0,5.4,0.5,7.5,1.5c2,1,3.7,2.3,4.9,4c1.2,1.7,2.1,3.7,2.7,6c0.5,2.3,0.8,4.7,0.8,7.3L856.4,161.2L856.4,161.2z"/>
		<path class="opst1" d="M909.4,137.8c0,1.5-0.3,2.6-1,3.4c-0.7,0.7-1.6,1.1-2.8,1.1h-26.9c0,1.9,0.2,3.6,0.7,5.1
			c0.5,1.5,1.2,2.8,2.1,3.9c1,1.1,2.2,1.9,3.8,2.5c1.5,0.6,3.4,0.8,5.5,0.8c2.2,0,4.1-0.2,5.8-0.5c1.7-0.3,3.1-0.7,4.3-1
			c1.2-0.4,2.2-0.7,3-1s1.4-0.5,1.9-0.5c0.3,0,0.5,0.1,0.7,0.2c0.2,0.1,0.4,0.3,0.5,0.6c0.1,0.3,0.2,0.7,0.3,1.3
			c0,0.5,0.1,1.2,0.1,2.1c0,0.7,0,1.3,0,1.9c0,0.5-0.1,1-0.1,1.3c-0.1,0.4-0.2,0.7-0.3,0.9c-0.1,0.2-0.3,0.5-0.5,0.7
			c-0.2,0.2-0.8,0.5-1.8,0.9c-1,0.4-2.2,0.8-3.7,1.2c-1.5,0.4-3.2,0.7-5.1,1c-1.9,0.3-4,0.4-6.2,0.4c-3.9,0-7.4-0.5-10.4-1.5
			c-3-1-5.4-2.5-7.4-4.5c-2-2-3.5-4.6-4.4-7.6c-1-3.1-1.5-6.7-1.5-10.8c0-3.9,0.5-7.5,1.5-10.7c1-3.2,2.5-5.8,4.5-8
			c2-2.2,4.3-3.9,7.1-5c2.8-1.2,6-1.7,9.5-1.7c3.7,0,6.9,0.5,9.5,1.6c2.6,1.1,4.8,2.6,6.5,4.5s2.9,4.2,3.7,6.9
			c0.8,2.6,1.2,5.5,1.2,8.6L909.4,137.8L909.4,137.8z M897.3,134.3c0.1-3.5-0.6-6.3-2.1-8.3s-3.8-3-7-3c-1.6,0-3,0.3-4.1,0.9
			c-1.2,0.6-2.2,1.4-2.9,2.4c-0.8,1-1.4,2.2-1.8,3.6c-0.4,1.4-0.7,2.8-0.7,4.4H897.3z"/>
		<path class="opst1" d="M948,121.1c0,1.2,0,2.2-0.1,2.9c-0.1,0.8-0.2,1.4-0.3,1.8c-0.1,0.4-0.3,0.7-0.5,0.9c-0.2,0.2-0.5,0.2-0.8,0.2
			c-0.3,0-0.6-0.1-0.9-0.2c-0.3-0.1-0.7-0.2-1.1-0.4c-0.4-0.1-0.9-0.3-1.4-0.4c-0.5-0.1-1-0.2-1.6-0.2c-0.7,0-1.4,0.1-2.1,0.4
			c-0.7,0.3-1.4,0.7-2.2,1.3c-0.8,0.6-1.5,1.4-2.3,2.4s-1.7,2.2-2.6,3.7V161c0,0.3-0.1,0.6-0.3,0.9c-0.2,0.2-0.5,0.5-1,0.6
			c-0.5,0.2-1.1,0.3-1.9,0.4c-0.8,0.1-1.8,0.1-3,0.1c-1.2,0-2.2,0-3-0.1c-0.8-0.1-1.4-0.2-1.9-0.4c-0.5-0.2-0.8-0.4-1-0.6
			c-0.2-0.2-0.3-0.5-0.3-0.9v-44.2c0-0.3,0.1-0.6,0.2-0.9c0.2-0.2,0.5-0.5,0.9-0.6c0.4-0.2,1-0.3,1.7-0.4c0.7-0.1,1.5-0.1,2.6-0.1
			c1.1,0,1.9,0,2.6,0.1c0.7,0.1,1.2,0.2,1.6,0.4c0.4,0.2,0.7,0.4,0.8,0.6c0.2,0.2,0.2,0.5,0.2,0.9v5.5c1.2-1.7,2.3-3,3.3-4.1
			c1-1.1,2-1.9,2.9-2.6c0.9-0.6,1.9-1.1,2.8-1.3c0.9-0.2,1.9-0.4,2.8-0.4c0.4,0,0.9,0,1.4,0.1c0.5,0.1,1,0.1,1.5,0.2
			c0.5,0.1,1,0.2,1.4,0.4c0.4,0.1,0.7,0.3,0.9,0.5c0.2,0.2,0.3,0.3,0.4,0.5c0.1,0.2,0.2,0.5,0.2,0.8c0.1,0.3,0.1,0.9,0.1,1.6
			C948,118.7,948,119.9,948,121.1z"/>
	</g>
</g>
<g>
	<path class="opst2" d="M171.7,7.7C158.1,2.7,143.4,0,128,0C94.7,0,64.5,12.7,41.7,33.5c0,0-0.1,0.1-0.1,0.1c13,3.2,26.7,3.9,39.8,1.5
		c24.5-4.5,46.4-18.7,70.7-24.5c6.4-1.6,13.3-2.5,20.1-2.7C172,7.8,171.9,7.7,171.7,7.7z"/>
	<path class="opst3" d="M227.3,178.7c-14.3,5.3-29.6,7.9-44.8,7.8c-9.2,0-18.4-1-27.4-3c-15.8-3.5-30.9-9.9-46.1-15.8
		c-13.1-5-26.2-9.6-40.1-11.5c-13.3-1.8-26.8-0.9-39.9,2.5c-0.1,0-0.1,0-0.2,0c-1.2,0.3-2.3,0.6-3.5,1c-0.3,0.1-0.6,0.2-1,0.3
		c-0.9,0.3-1.7,0.5-2.6,0.8c-0.9,0.3-1.7,0.6-2.6,0.9c-0.3,0.1-0.6,0.2-0.8,0.3c-4.2,1.5-8.3,3.4-12.2,5.4
		c6.7,20.8,18.5,39.2,33.9,53.8c0.5,0.1,1,0.3,1.5,0.4c23.2,6.4,48.3,6.2,71.3-0.6c14.9-4.3,28.8-11.4,43.2-16.7
		c26-9.4,54.4-13.1,82-10.9c4.6-7.8,8.5-16.2,11.4-25C242.1,172.4,234.8,176,227.3,178.7z"/>
	<path class="opst4" d="M238.1,193.3c-27.8-2.2-56.2,1.6-82.1,10.9c-14.6,5.3-28.2,12.2-43.2,16.7c-23.3,6.9-48.1,7-71.3,0.6
		c-0.4-0.1-0.8-0.2-1.2-0.3C63.2,242.8,94,256,128,256C174.7,256,215.7,230.8,238.1,193.3z"/>
	<path class="opst4" d="M227.9,48.1C213.5,30,194.2,16,172.1,7.8c-6.8,0.3-13.6,1.2-20.1,2.7c-24.3,5.8-46.2,20-70.7,24.5
		c-13.1,2.5-26.8,1.8-39.8-1.5C30.4,43.9,21,56.2,14,69.8c19.5-9.4,41.7-14.6,63.3-14.5c30.4,0.2,60.1,10.4,90.7,9.6
		C188.7,64.5,209.7,58.3,227.9,48.1C227.9,48.1,227.9,48.1,227.9,48.1z"/>
	<path class="opst5" d="M251.7,127.7c-19.7-5-41.2-5.1-60.6,0.5c-0.2,0-0.2,0-0.3,0c-19.2,5.6-39.8,4.5-58-3.5
		c-0.3-0.2-0.8-0.3-1.1-0.5c-2.6-1.1-5.3-2.2-7.8-3.4c-11.4-5.1-23.1-9.7-35.2-12.9c-0.1,0-0.1,0-0.2,0.1
		c-9.9,3.5-19.8,6.2-30.2,7.4c-12.5,1.4-25.4,0-37.6-3.7c-0.1,0-0.1-0.1-0.2-0.1c-2,0.8-4.2,1.7-5.9,2.6c-4.9,2.4-9.8,5.2-14.4,8.3
		c-0.1,1.8-0.1,3.6-0.1,5.4c0,13.6,2.2,26.8,6.1,39.1c19.5-9.9,41.6-14,62.8-11.1c13.9,1.9,27,6.6,40.1,11.5
		c15.2,5.9,30.2,12.3,46.1,15.8c23.8,5.3,49.1,3.7,72-4.6c7.7-2.9,15.3-6.4,22.4-10.5c4.1-12.4,6.4-25.6,6.5-39.4
		C254.6,128.5,253.1,128.1,251.7,127.7z"/>
	<path class="opst3" d="M227.9,48.1c-18.2,10.3-39.2,16.5-60,16.9c-1.9,0.1-3.8,0.1-5.7,0c-28.6-0.5-56.5-9.5-85-9.6
		C55.7,55.2,33.5,60.5,14,69.8C8.5,80.5,4.6,91.9,2.3,104c1.3,0.7,2.5,1.3,3.8,1.9c0.4,0.2,0.7,0.3,1.1,0.5c0,0,0.1,0,0.1,0
		c1.2,0.6,2.4,1.1,3.5,1.6c1.6,0.7,3.1,1.3,4.7,1.9c0,0,0,0,0,0c1.6,0.6,3.2,1.2,4.8,1.7l0,0c0.1,0,0.1,0.1,0.2,0.1
		c12.2,3.7,25.1,5.1,37.6,3.7c10.4-1.1,20.3-3.8,30.2-7.4c6.2-2.2,12.3-4.6,18.2-7.2c15.7-6.6,31.2-13.8,47.7-17.6
		c24.1-5.6,50-3.7,73.2,5.4c8.9,3.5,17.8,8.3,25.9,13.9C249.3,82.3,240.4,63.7,227.9,48.1z"/>
	<path class="opst1" d="M15.6,110C15.6,110,15.6,110,15.6,110c-1.6-0.6-3.2-1.2-4.8-1.9c0,0,0,0,0,0c-1.2-0.5-2.4-1-3.5-1.6
		c-0.4-0.2-0.8-0.4-1.2-0.6c-1.3-0.6-2.6-1.3-3.8-1.9c-1.2,6.1-1.9,12.3-2.1,18.6c4.6-3.1,9.5-5.9,14.4-8.3c1.7-0.9,3.8-1.9,5.9-2.6
		C18.8,111.2,17.2,110.6,15.6,110z"/>
	<path class="opst1" d="M253.4,102.6c-8.1-5.7-17-10.5-25.9-13.9c-23.2-9.1-49.1-11-73.2-5.4c-16.5,3.8-32,11-47.7,17.6
		c-5.9,2.5-11.9,4.9-18.1,7.1c12,3.2,23.8,7.8,35.2,12.9c2.6,1.1,5.3,2.2,7.8,3.4c0.3,0.2,0.8,0.3,1.1,0.5c18.2,8,38.9,9.1,58,3.5
		c0.2,0,0.2,0,0.3,0c19.5-5.6,40.9-5.6,60.6-0.5c1.4,0.4,2.9,0.8,4.3,1.2c0,0,0-0.6,0-0.9C256,119.4,255.1,110.9,253.4,102.6z"/>
</g>
</svg>
